HIERARCHY
ROOT teapot3
{
	OFFSET 0.000000 0.000000 0.000000
	CHANNELS 6 Xposition Yposition Zposition Yrotation Xrotation Zrotation
	End Site
	{
		OFFSET 0.000000 0.000000 0.000000
	}
}
MOTION
Frames: 69
Frame Time: 0.008333334
2.479323 3.927040 2.849783 -34.099430 -0.869843 1.593998 
2.478464 3.927186 2.849533 -34.209810 -0.878479 1.578607 
2.477699 3.927778 2.848333 -34.319000 -0.971191 1.622003 
2.477867 3.928299 2.846280 -34.489690 -1.092010 1.635093 
2.479163 3.928953 2.843001 -34.696530 -1.247681 1.625870 
2.481227 3.929770 2.838871 -34.972170 -1.442963 1.623406 
2.483698 3.930884 2.833947 -35.306210 -1.651398 1.605930 
2.486765 3.931800 2.828755 -35.658690 -1.845703 1.635276 
2.489269 3.933079 2.823705 -36.058470 -2.123871 1.624393 
2.491659 3.934335 2.818077 -36.507660 -2.353302 1.679499 
2.494277 3.935475 2.812182 -36.938810 -2.540863 1.719736 
2.496435 3.936398 2.806446 -37.431850 -2.701660 1.763645 
2.499124 3.937350 2.800382 -37.909120 -2.924530 1.883505 
2.501449 3.938172 2.794256 -38.453430 -3.102600 2.017615 
2.503455 3.939326 2.787763 -38.973690 -3.307739 2.139478 
2.505152 3.940206 2.781901 -39.561130 -3.549713 2.221122 
2.507167 3.941026 2.776114 -40.106930 -3.706329 2.361501 
2.508433 3.942557 2.770965 -40.635250 -3.970520 2.472635 
2.509553 3.943750 2.764698 -41.213200 -4.211792 2.607895 
2.510699 3.945363 2.759467 -41.698490 -4.444183 2.798577 
2.512170 3.947218 2.754124 -42.139830 -4.673096 2.989996 
2.512866 3.949923 2.749312 -42.627560 -4.918091 3.104524 
2.513526 3.953545 2.745481 -43.007050 -5.060669 3.272311 
2.513948 3.958757 2.742051 -43.345700 -5.120941 3.391629 
2.513705 3.966579 2.739642 -43.633330 -5.152283 3.478493 
2.513415 3.975849 2.738514 -43.863160 -5.043182 3.532793 
2.512572 3.987557 2.738300 -44.085510 -4.887421 3.601813 
2.511074 4.001524 2.738841 -44.244350 -4.703064 3.694044 
2.510191 4.017614 2.739538 -44.391630 -4.423492 3.746758 
2.508381 4.035968 2.741322 -44.544370 -4.149658 3.735232 
2.506503 4.055909 2.743719 -44.703700 -3.865723 3.839611 
2.503841 4.078249 2.746274 -44.839510 -3.505280 4.027253 
2.500712 4.102381 2.748803 -45.050380 -3.206635 4.206697 
2.496768 4.128475 2.751252 -45.236690 -2.941742 4.497218 
2.492785 4.155962 2.753639 -45.501800 -2.632721 4.862490 
2.488050 4.185280 2.755084 -45.778590 -2.354401 5.351640 
2.483079 4.215361 2.756553 -46.052190 -2.026306 5.887764 
2.477360 4.247929 2.757925 -46.422910 -1.807861 6.412989 
2.472135 4.281171 2.759701 -46.748720 -1.459839 7.002276 
2.466859 4.316739 2.762030 -47.098630 -1.086823 7.630166 
2.462524 4.353300 2.765009 -47.369720 -0.583710 8.309976 
2.458605 4.391531 2.768567 -47.610990 -0.004179 9.004292 
2.454584 4.430763 2.772504 -47.905490 0.422084 9.464179 
2.450501 4.470152 2.776962 -48.254880 0.910873 9.867396 
2.446898 4.510121 2.781464 -48.567990 1.272858 10.195320 
2.444433 4.550954 2.785333 -48.920810 1.694945 10.564180 
2.442200 4.592506 2.788993 -49.216550 2.037473 10.943720 
2.440785 4.634634 2.792690 -49.528410 2.402521 11.259640 
2.440011 4.676800 2.796402 -49.778110 2.715422 11.671170 
2.439145 4.719575 2.799797 -50.121550 3.012912 12.018550 
2.438407 4.762603 2.803087 -50.419950 3.314893 12.403490 
2.437711 4.805936 2.806267 -50.677430 3.582505 12.775330 
2.437135 4.849501 2.809283 -50.940550 3.928781 13.170920 
2.436746 4.893320 2.812853 -51.235720 4.229350 13.490900 
2.436150 4.937580 2.815592 -51.486510 4.528612 13.859090 
2.434979 4.982234 2.818954 -51.755220 4.841178 14.217320 
2.434048 5.026336 2.821576 -52.012240 5.156400 14.513560 
2.432524 5.070743 2.824415 -52.289000 5.449314 14.880940 
2.431028 5.115090 2.827901 -52.550750 5.731360 15.133950 
2.429196 5.159614 2.831013 -52.810240 6.082119 15.438430 
2.426998 5.204606 2.834797 -53.085050 6.454337 15.698120 
2.423884 5.249115 2.839182 -53.378450 6.819918 15.871800 
2.420501 5.293782 2.843282 -53.593170 7.223311 16.097630 
2.416838 5.338403 2.848002 -53.887970 7.574461 16.288290 
2.412812 5.381937 2.852057 -54.186890 7.936605 16.425790 
2.408699 5.425950 2.856472 -54.465820 8.285581 16.635930 
2.404441 5.469260 2.860346 -54.719790 8.580119 16.847550 
2.400459 5.512007 2.863741 -55.024660 8.817138 16.998410 
2.395840 5.554101 2.867434 -55.275820 9.058812 17.234310 
